<svg id="svg" version="1.1" viewBox="0 0 188.40342997141693 300" width="188.40342997141693" height="300" xmlns="http://www.w3.org/2000/svg">
  <defs>
    <clipPath id="clip-1">
      <rect x="0" y="0" transform="scale(0.07693,0.1225)" width="2449" height="2449" fill="none"/>
    </clipPath>
  </defs>
  <g clip-path="url(#clip-1)" fill="none" fill-rule="nonzero" stroke="none" stroke-width="1" stroke-linecap="butt" stroke-linejoin="miter" stroke-miterlimit="10">
    <path d="M0,0h4.99665h19.98839h38.99874h6.08292l0.09347,0.02038c1.3109,0.26872 3.39295,0.31207 4.79109,0.46201c2.55495,0.29326 5.10212,0.73938 7.63622,1.33743c16.38856,3.97864 34.09187,14.66866 44.64907,35.86809c12.29969,24.69824 6.61066,53.73724 -8.15543,71.38114c-18.13643,21.67044 -43.35741,28.13838 -65.41499,23.5655c-8.15881,-1.57166 -16.14715,-4.88893 -23.74914,-9.85994c-4.585,-3.20568 -8.60209,-6.39665 -12.73435,-11.00813c-8.0685,-9.00404 -15.14329,-21.74014 -16.78936,-37.68681c-0.15263,-1.47869 -0.23277,-2.96729 -0.39328,-4.43508v-5.31756v-59.34453z" fill="#22D3EE"/>
    <path d="M0,0h4.99665h19.98839c5.26168,1.43446 4.97065,3.8854 4.93218,11.14556c-3.11616,2.22055 -6.20054,4.5261 -9.02744,7.21275c-10.04508,9.54684 -19.33275,24.42777 -20.70184,43.77599c-0.0442,0.62462 -0.10083,1.59628 -0.18794,2.19273v-59.34453z" fill="#FAFAFA"/>
    <path d="M0,69.64459c0.1605,1.46778 0.24065,2.95639 0.39328,4.43508c1.64607,15.94667 8.72087,28.68277 16.78936,37.68681c4.13226,4.61147 8.14935,7.80245 12.73435,11.00813l-0.00062,116.58595l-0.00031,37.42221l-0.00108,11.04696c0.02216,7.67334 0.71384,10.79584 -5.08289,12.17027h-19.72554h-5.10656v-4.96978z" fill="#FAFAFA"/>
    <path d="M54.85971,300c-1.83011,-0.50715 -3.53081,-1.12699 -4.63308,-3.75704c-0.1064,-0.25357 -0.28211,-0.69824 -0.29357,-0.99714c-0.08701,-2.27971 -0.06016,-4.82033 -0.06039,-7.09024l-0.00062,-15.46427l0.00354,-91.73336l-0.00369,-22.56799c-0.00308,-3.10657 -0.08301,-6.5733 0.06062,-9.60024c0.13263,-2.79543 3.03384,-4.77379 4.57046,-4.89996c1.26643,-0.10412 2.51579,-0.09432 3.77815,-0.08575l5.88913,0.0098l9.73859,-0.00122c2.06828,-0.00735 4.58053,-0.25112 6.5992,0.35647c1.33398,0.40057 3.39957,2.39241 3.51035,4.67456c0.06616,2.65945 0.03154,5.4169 0.0277,8.09473l-0.00154,15.39322l0.00077,93.56717l-0.00154,19.53614c-0.00385,8.33116 1.30475,12.82442 -4.95742,14.56513z" fill="#3B82F6"/>
    <path d="M170.10622,78.2706c4.32659,-0.35267 5.13051,1.79437 8.27467,5.9145l4.51199,5.96742c0.84239,1.11805 1.7394,2.22409 2.50333,3.49318c0.80085,1.33083 0.8247,3.5009 0.13694,4.95949c-0.3785,0.80188 -0.90163,1.46729 -1.46707,1.90951c-1.7371,1.35876 -3.49496,2.66178 -5.24591,3.97913l-9.87714,7.42368l-29.49218,22.17967l-23.35541,17.5541l-7.75924,5.85423c-1.90404,1.43691 -3.88039,3.2548 -5.96367,3.72764c-3.57343,0.40302 -4.61661,-0.94692 -7.2061,-4.40751l-3.38034,-4.47856c-1.57708,-2.09473 -3.26494,-4.22499 -4.73355,-6.41527c-0.87316,-1.30094 -0.81777,-3.87342 -0.03847,-5.17926c0.56159,-0.94324 0.66622,-1.19927 1.40783,-1.77379c2.06482,-1.59984 4.14041,-3.14577 6.21524,-4.70519l11.47268,-8.62393l34.85117,-26.20706l17.58868,-13.21482l5.48362,-4.13655c2.07251,-1.56835 3.82269,-3.20482 6.07291,-3.82062z" fill="#3B82F6"/>
  </g>
</svg>
